<svg height="50" viewBox="0 0 50 50" width="50" xmlns="http://www.w3.org/2000/svg"><path d="m25 1.0507812c-.2175 0-.434141.0689844-.619141.2089844l-22.9999996 17.9511724c-.43000002.34-.5099219.968203-.1699219 1.408203.34.43.9682031.509921 1.4082031.169921l1.3808594-1.078124v26.289062c0 .55.45 1 1 1h14v-18h12v18h14c.55 0 1-.45 1-1v-26.289062l1.380859 1.078124c.19.140001.399141.210938.619141.210938.3 0 .589063-.130859.789062-.380859.340001-.44.260079-1.068203-.169921-1.408203l-23-17.9511724c-.185-.14-.401641-.2089844-.619141-.2089844zm10 3.9492188v1.0507812l6 4.6796878v-5.730469z" fill="#f45063"/></svg>