<svg height="20" viewBox="0 0 20 20" width="20" xmlns="http://www.w3.org/2000/svg"><path d="m15 13.442c-.633 0-1.204.246-1.637.642l-5.938-3.463c.046-.188.075-.384.075-.584s-.029-.395-.075-.583l5.875-3.429c.446.417 1.042.675 1.7.675 1.379 0 2.5-1.121 2.5-2.5s-1.121-2.5-2.5-2.5-2.5 1.121-2.5 2.5c0 .2.029.396.075.583l-5.875 3.429c-.446-.416-1.042-.675-1.7-.675-1.379 0-2.5 1.121-2.5 2.5s1.121 2.5 2.5 2.5c.658 0 1.254-.258 1.7-.675l5.938 3.463c-.042.175-.067.358-.067.546 0 1.342 1.087 2.429 2.429 2.429s2.429-1.088 2.429-2.429-1.087-2.429-2.429-2.429z" fill="#666"/></svg>